{
    "asset" : {
        "generator" : "Khronos glTF Blender I/O v1.1.46",
        "version" : "2.0"
    },
    "scene" : 0,
    "scenes" : [
        {
            "name" : "Scene",
            "nodes" : [
                0,
                1,
                2,
                3
            ]
        }
    ],
    "nodes" : [
        {
            "name" : "Light",
            "rotation" : [
                0.16907575726509094,
                0.7558803558349609,
                -0.27217137813568115,
                0.570947527885437
            ],
            "translation" : [
                4.076245307922363,
                3.7188849449157715,
                6.831646919250488
            ]
        },
        {
            "name" : "Camera",
            "rotation" : [
                0.483536034822464,
                0.33687159419059753,
                -0.20870360732078552,
                0.7804827094078064
            ],
            "translation" : [
                7.358891487121582,
                4.958309173583984,
                6.925790786743164
            ]
        },
        {
            "mesh" : 0,
            "name" : "Mask",
            "rotation" : [
                -0.1305244117975235,
                -0.005191169213503599,
                -0.0006834304076619446,
                0.9914312958717346
            ],
            "translation" : [
                0,
                -1.600000023841858,
                -2
            ]
        },
        {
            "mesh" : 1,
            "name" : "Head",
            "rotation" : [
                -0.1305244117975235,
                -0.005191169213503599,
                -0.0006834304076619446,
                0.9914312958717346
            ],
            "translation" : [
                0,
                -1.600000023841858,
                -2.299999952316284
            ]
        }
    ],
    "materials" : [
        {
            "doubleSided" : true,
            "emissiveFactor" : [
                0,
                0,
                0
            ],
            "name" : "lambert1.001",
            "pbrMetallicRoughness" : {
                "baseColorFactor" : [
                    0,
                    0,
                    0,
                    1
                ],
                "metallicFactor" : 0,
                "roughnessFactor" : 0.6000000238418579
            }
        }
    ],
    "meshes" : [
        {
            "name" : "Plane_lambert1_0.001",
            "primitives" : [
                {
                    "attributes" : {
                        "POSITION" : 0,
                        "NORMAL" : 1,
                        "TEXCOORD_0" : 2
                    },
                    "indices" : 3,
                    "material" : 0
                }
            ]
        },
        {
            "name" : "Head",
            "primitives" : [
                {
                    "attributes" : {
                        "POSITION" : 4,
                        "NORMAL" : 5,
                        "TEXCOORD_0" : 6
                    },
                    "indices" : 7
                }
            ]
        }
    ],
    "accessors" : [
        {
            "bufferView" : 0,
            "componentType" : 5126,
            "count" : 26603,
            "max" : [
                7.813346862792969,
                5.8847975730896,
                8.54061508178711
            ],
            "min" : [
                -7.813347816467285,
                -7.0133256912231445,
                -6.88381290435791
            ],
            "type" : "VEC3"
        },
        {
            "bufferView" : 1,
            "componentType" : 5126,
            "count" : 26603,
            "type" : "VEC3"
        },
        {
            "bufferView" : 2,
            "componentType" : 5126,
            "count" : 26603,
            "type" : "VEC2"
        },
        {
            "bufferView" : 3,
            "componentType" : 5123,
            "count" : 145152,
            "type" : "SCALAR"
        },
        {
            "bufferView" : 4,
            "componentType" : 5126,
            "count" : 192,
            "max" : [
                7.917184352874756,
                7.967287540435791,
                9.081974029541016
            ],
            "min" : [
                -7.608180046081543,
                -7.537242412567139,
                -13.857677459716797
            ],
            "type" : "VEC3"
        },
        {
            "bufferView" : 5,
            "componentType" : 5126,
            "count" : 192,
            "type" : "VEC3"
        },
        {
            "bufferView" : 6,
            "componentType" : 5126,
            "count" : 192,
            "type" : "VEC2"
        },
        {
            "bufferView" : 7,
            "componentType" : 5123,
            "count" : 372,
            "type" : "SCALAR"
        }
    ],
    "bufferViews" : [
        {
            "buffer" : 0,
            "byteLength" : 319236,
            "byteOffset" : 0
        },
        {
            "buffer" : 0,
            "byteLength" : 319236,
            "byteOffset" : 319236
        },
        {
            "buffer" : 0,
            "byteLength" : 212824,
            "byteOffset" : 638472
        },
        {
            "buffer" : 0,
            "byteLength" : 290304,
            "byteOffset" : 851296
        },
        {
            "buffer" : 0,
            "byteLength" : 2304,
            "byteOffset" : 1141600
        },
        {
            "buffer" : 0,
            "byteLength" : 2304,
            "byteOffset" : 1143904
        },
        {
            "buffer" : 0,
            "byteLength" : 1536,
            "byteOffset" : 1146208
        },
        {
            "buffer" : 0,
            "byteLength" : 744,
            "byteOffset" : 1147744
        }
    ],
    "buffers" : [
        {
            "byteLength" : 1148488,
            "uri" : "data:application/octet-stream;base64,"
        }
    ]
}
